<svg width="1249" height="565" viewBox="0 0 1249 565" fill="none" xmlns="http://www.w3.org/2000/svg">
<path d="M1156.17 184.285C1207.07 184.285 1248.34 143.031 1248.34 92.1461C1248.34 41.2533 1207.07 0 1156.17 0C1105.26 0 1064 41.2533 1064 92.1461C1064 143.031 1105.26 184.285 1156.17 184.285Z" fill="white"/>
<path d="M1165.91 56.3361L1156.17 92.1462L1187.91 133.818" stroke="#9C27B0" stroke-width="4" stroke-linecap="round" stroke-linejoin="round"/>
<path d="M1156.17 25.8646C1158.78 25.8646 1160.88 23.7515 1160.88 21.1531C1160.88 18.5472 1158.78 16.4417 1156.17 16.4417C1153.57 16.4417 1151.45 18.5472 1151.45 21.1531C1151.45 23.7515 1153.57 25.8646 1156.17 25.8646Z" fill="#9C27B0"/>
<path d="M1156.17 167.739C1158.78 167.739 1160.88 165.626 1160.88 163.027C1160.88 160.421 1158.78 158.316 1156.17 158.316C1153.57 158.316 1151.45 160.421 1151.45 163.027C1151.45 165.626 1153.57 167.739 1156.17 167.739Z" fill="#9C27B0"/>
<path d="M1227.07 96.8576C1229.68 96.8576 1231.79 94.7371 1231.79 92.1462C1231.79 89.5328 1229.68 87.4347 1227.07 87.4347C1224.47 87.4347 1222.36 89.5328 1222.36 92.1462C1222.36 94.7371 1224.47 96.8576 1227.07 96.8576Z" fill="#9C27B0"/>
<path d="M1085.16 96.8576C1087.77 96.8576 1089.87 94.7371 1089.87 92.1462C1089.87 89.5328 1087.77 87.4347 1085.16 87.4347C1082.55 87.4347 1080.45 89.5328 1080.45 92.1462C1080.45 94.7371 1082.55 96.8576 1085.16 96.8576Z" fill="#9C27B0"/>
<path d="M1155.96 99.0528C1159.6 99.0528 1162.56 96.1035 1162.56 92.4598C1162.56 88.8161 1159.6 85.8593 1155.96 85.8593C1152.31 85.8593 1149.36 88.8161 1149.36 92.4598C1149.36 96.1035 1152.31 99.0528 1155.96 99.0528Z" fill="#6C6C6C"/>
<path d="M417.698 564.473H403.868V351.256C403.868 327.755 388.767 308.61 370.232 308.61H136.011C117.476 308.61 102.375 327.755 102.375 351.256V564.473H88.546V351.256C88.546 319.036 109.846 292.818 136.011 292.818H370.232C396.398 292.818 417.698 319.036 417.698 351.256V564.473Z" fill="#61CCFF"/>
<path d="M512.234 564.714H462.921L457.318 511.468H517.836L512.234 564.714Z" fill="#FFC930"/>
<path opacity="0.3" d="M512.233 564.714H492.942L507.099 511.468H517.836L512.233 564.714Z" fill="#4E411B"/>
<path d="M523.854 501.973H451.3V523.259H523.854V501.973Z" fill="#FFC930"/>
<path d="M528.258 486.562C539.37 483.029 546.271 473.526 543.661 465.329C541.057 457.139 529.938 453.358 518.827 456.891C507.708 460.424 500.814 469.926 503.411 478.117C506.022 486.314 517.147 490.088 528.258 486.562Z" fill="#FE4F32"/>
<path d="M458.034 486.067C471.368 482.58 479.762 470.535 476.784 459.159C473.812 447.784 460.585 441.393 447.257 444.886C433.923 448.372 425.529 460.417 428.508 471.793C431.487 483.162 444.707 489.56 458.034 486.067Z" fill="#FE4F32"/>
<path d="M516.772 428.351C521.263 413.415 515.018 398.332 502.816 394.665C490.62 390.998 477.091 400.132 472.6 415.075C468.108 430.011 474.354 445.094 486.55 448.767C498.746 452.434 512.28 443.293 516.772 428.351Z" fill="#FE4F32"/>
<path d="M502.38 395.013C486.275 443.186 487.279 501.973 487.279 501.973" stroke="black" stroke-width="4" stroke-linecap="round" stroke-linejoin="round"/>
<path d="M543.433 465.543C501.965 471.144 487.989 486.829 487.989 486.829" stroke="black" stroke-width="4" stroke-linecap="round" stroke-linejoin="round"/>
<path d="M516.598 523.259H458.556" stroke="#4E411B" stroke-width="4" stroke-linecap="round" stroke-linejoin="round"/>
<path d="M428.535 472.028C460.504 451.036 487.989 462.418 487.989 462.418" stroke="black" stroke-width="4" stroke-linecap="round" stroke-linejoin="round"/>
<path d="M289.338 284.005L312.365 213.308C313.188 210.664 312.994 208.276 311.675 206.449C310.477 204.749 308.469 203.872 306.073 203.872H204.462C199.24 203.872 193.705 208.081 192.005 213.241L168.978 284.005H289.338Z" fill="#FE4F32"/>
<path d="M280.282 283.309L301.862 217.082H198.926L177.345 283.309H280.282Z" fill="white"/>
<path d="M246.806 213.241C248.567 213.114 250.08 211.983 250.642 210.35C250.896 209.721 250.836 208.965 250.454 208.396C250.08 207.894 249.45 207.647 248.881 207.707C247.121 207.834 245.608 208.965 245.046 210.598C244.792 211.227 244.858 211.983 245.233 212.552C245.608 213.053 246.177 213.308 246.806 213.241Z" fill="#787574"/>
<path d="M218.512 267.256C211.912 259.641 214.783 246.351 224.911 237.572C235.045 228.786 248.614 227.835 255.22 235.45C261.82 243.066 258.949 256.355 248.814 265.135C238.68 273.914 225.112 274.864 218.512 267.256Z" fill="#61CCFF"/>
<path d="M93.4123 283.062H211.758H289.466L288.582 285.892C287.39 289.666 283.803 292.243 279.84 292.243H218.364H100.019C99.2626 292.243 98.446 292.115 97.6896 291.868C94.1017 290.61 92.1538 286.709 93.4123 283.062Z" fill="#FE4F32"/>
<path d="M279.84 292.243C287.953 292.31 289.653 283.122 289.653 283.122L211.758 283.062C211.51 283.751 211.383 284.507 211.383 285.196C211.383 289.037 214.469 292.182 218.365 292.243H279.84Z" fill="#505050"/>
<path d="M289.653 283.062H169.226" stroke="#505050" stroke-width="4" stroke-linecap="round" stroke-linejoin="round"/>
<path d="M109.029 105.853C126.466 105.164 128.18 97.9567 134.84 107.974C135.663 109.212 145.617 107.7 146.306 109.353C148.435 115.114 149.533 123.76 150.698 131.515C150.698 131.515 156.876 132.753 157.358 135.356C157.84 138.381 152.411 142.63 152.411 142.63C154.68 149.703 155.778 157.8 150.631 165.007C143.214 175.433 124.338 172.689 124.338 172.689L124.13 177.494L106.766 186.213L77.5214 177.494L77.3809 173.653C79.1012 158.69 83.9742 131.448 83.9742 123.552C83.9742 101.938 88.9878 106.602 109.029 105.853Z" fill="#EAA58B"/>
<path opacity="0.3" d="M124.271 172.689L124.063 177.494L116.372 183.737L108.688 172.756C107.315 170.769 109.303 168.3 111.573 169.123L124.271 172.689Z" fill="black"/>
<path d="M144.245 105.297C137.517 95.2131 126.259 90.0003 108.621 90.6829C88.4322 91.439 76.283 103.31 76.2161 125.065C76.2161 132.753 76.9055 158.69 77.3808 173.653C77.3808 173.653 93.1713 173.445 100.106 164.459C100.106 164.459 85.5538 150.593 92.4886 140.228C99.4166 129.869 115.348 142.289 115.348 142.289C125.85 137.351 122.075 126.918 121.111 124.723C121.044 124.583 121.178 124.375 121.385 124.449C124.404 125.406 142.391 130.277 137.658 113.602C137.584 113.401 137.725 113.261 137.932 113.261C144.586 113.127 146.306 109.353 146.306 109.353C145.757 107.907 145.001 106.602 144.245 105.297Z" fill="#C65A42"/>
<path d="M146.233 148.258C141.36 149.081 138.615 144.966 138.615 144.966" stroke="black" stroke-width="4" stroke-linecap="round" stroke-linejoin="round"/>
<path d="M124.271 172.689L113.146 169.604" stroke="black" stroke-width="4" stroke-linecap="round" stroke-linejoin="round"/>
<path d="M110.334 151.758L104.363 149.081" stroke="black" stroke-width="4" stroke-linecap="round" stroke-linejoin="round"/>
<path d="M142.39 133.985C143.569 133.985 144.519 133.034 144.519 131.857C144.519 130.686 143.569 129.729 142.39 129.729C141.219 129.729 140.262 130.686 140.262 131.857C140.262 133.034 141.219 133.985 142.39 133.985Z" fill="black"/>
<path d="M124.063 515.269L122.142 510.806C123.032 502.709 124.204 495.094 125.643 487.546L129.21 477.18L198.611 478.278L197.105 487.338C195.459 492.484 194.354 497.77 193.604 503.124L175.069 539.426L124.063 515.269Z" fill="#EAA58B"/>
<path d="M82.7358 345.555C87.6824 324.215 95.5744 310.765 95.5744 310.765L97.9105 313.576C97.9105 313.576 189.481 323.801 217.561 357.158C240.487 384.333 208.364 450.487 197.032 487.546H125.643C131.821 455.426 142.049 426.672 154.265 402.448H137.859C93.3788 402.515 76.0085 374.998 82.7358 345.555Z" fill="#FE4F32"/>
<path opacity="0.3" d="M217.628 357.158C189.555 323.801 97.9774 313.576 97.9774 313.576L95.6413 310.765C95.6413 310.765 87.7494 324.215 82.8094 345.555C76.0822 374.998 95.3668 393.253 139.92 393.113L154.265 402.448C151.795 407.386 149.459 412.331 147.13 417.685C143.629 425.574 184.675 432.507 186.737 487.546H197.032C208.364 450.487 240.487 384.333 217.628 357.158Z" fill="#CB2B11"/>
<path d="M197.032 487.545H125.643" stroke="#CB2B11" stroke-width="4" stroke-linecap="round" stroke-linejoin="round"/>
<path d="M217.213 549.992C209.803 537.639 193.397 534.347 193.256 509.434C193.256 508.062 193.531 503.806 193.604 503.124H177.057C171.843 503.05 167.653 507.239 167.586 512.452C167.586 513.001 167.653 513.549 167.72 514.172L170.33 530.366C170.33 530.366 152.137 512.178 122.142 510.806C121.452 516.226 121.111 521.927 120.77 527.555C120.629 529.542 120.562 531.804 120.422 533.865C120.221 539.011 119.739 544.572 119.739 549.992L120.288 551.023L217.012 550.267C217.012 550.2 217.213 549.992 217.213 549.992Z" fill="#FFC930"/>
<path d="M217.213 549.992H119.739C119.598 554.456 119.739 559.187 119.873 563.924H220.788C220.855 560.632 220.306 557.407 219.342 554.248C218.726 552.736 218.043 551.297 217.213 549.992Z" fill="white"/>
<path d="M195.318 522.75L184.267 527.415" stroke="#1D180A" stroke-width="4" stroke-linecap="round" stroke-linejoin="round"/>
<path d="M200.124 531.604L191.268 538.396" stroke="#1D180A" stroke-width="4" stroke-linecap="round" stroke-linejoin="round"/>
<path d="M170.263 530.158L173.972 549.992" stroke="#1D180A" stroke-width="4" stroke-linecap="round" stroke-linejoin="round"/>
<path d="M214.469 486.307L270.281 453.371L278.93 461.327C280.509 469.498 281.333 475.601 282.638 478.277L278.863 519.659H228.746L221.818 516.433C218.867 508.477 216.939 502.026 214.817 494.271L214.469 486.307Z" fill="#EAA58B"/>
<path d="M61.2489 332.653L65.2986 308.155L148.087 310.558C148.087 310.558 225.728 321.331 247.971 345.629C266.847 369.23 266.091 393.528 273.441 432.165C275.362 442.524 277.283 452.956 278.93 461.328L214.817 494.271C203.558 452.066 202.387 429.556 202.46 402.314L118.226 402.514C81.0222 402.862 53.4239 368.681 61.2489 332.653Z" fill="#FE4F32"/>
<path d="M278.93 461.328L214.817 494.271" stroke="#CB2B11" stroke-width="4" stroke-linecap="round" stroke-linejoin="round"/>
<path d="M324.514 508.203C312.358 500.447 295.952 504.629 284.626 482.4C283.943 481.162 283.394 479.79 282.705 478.345C282.705 478.278 282.638 478.211 282.571 478.211L270.897 483.838C265.475 486.448 263.139 492.966 265.75 498.386C266.024 498.935 266.299 499.417 266.64 499.898L275.087 512.044C275.087 512.044 250.033 503.532 221.819 516.433C223.599 521.238 225.52 526.11 227.515 531.055C228.271 532.975 229.229 534.963 229.985 537.024C231.973 541.828 236.853 551.846 236.853 551.846L238.774 552.809L324.514 509.367C324.648 509.093 324.581 508.27 324.514 508.203Z" fill="#FFC930"/>
<path d="M327.533 510.531C326.569 509.708 325.538 508.885 324.514 508.203L236.853 551.846C238.774 555.894 241.036 559.735 243.305 563.924L333.644 518.903C332.132 515.677 330.07 512.867 327.533 510.531Z" fill="white"/>
<path d="M293.348 494.197L285.931 503.124" stroke="#1D180A" stroke-width="4" stroke-linecap="round" stroke-linejoin="round"/>
<path d="M301.996 499.758L297.531 509.093" stroke="#1D180A" stroke-width="4" stroke-linecap="round" stroke-linejoin="round"/>
<path d="M275.154 511.977L287.17 526.799" stroke="#1D180A" stroke-width="4" stroke-linecap="round" stroke-linejoin="round"/>
<path d="M206.711 459.681C202.661 437.445 202.32 421.184 202.46 402.314" stroke="#CB2B11" stroke-width="4" stroke-linecap="round" stroke-linejoin="round"/>
<path d="M154.265 402.448L202.46 402.314" stroke="#CB2B11" stroke-width="4" stroke-linecap="round" stroke-linejoin="round"/>
<path d="M195.733 257.513C183.785 263.141 174.313 267.805 174.313 267.805C174.313 267.805 168.135 233.49 160.584 214.278C153.034 195.06 142.049 184.768 124.204 183.396L124.063 177.494H77.5214V183.945C55.76 186.762 42.5131 216.265 33.5836 247.837C24.6608 279.401 23.0142 326.752 61.2489 332.587L66.055 310.558L137.035 310.698C137.035 310.698 148.227 326.069 171.569 323.325C185.431 321.679 205.339 310.216 221.129 299.784L222.916 297.723L202.387 257.238L195.733 257.513Z" fill="#FFC930"/>
<path opacity="0.3" d="M46.6967 327.374C51.1614 330.117 55.9675 331.764 61.2489 332.587L66.055 310.558L61.7978 278.371C55.6194 278.371 58.2969 291.138 54.8697 307.607C51.9178 321.813 46.6967 327.374 46.6967 327.374Z" fill="black"/>
<path d="M137.035 310.698C130.449 298.961 121.452 277.414 116.646 250.647" stroke="black" stroke-width="4" stroke-linecap="round" stroke-linejoin="round"/>
<path d="M59.9503 264.579L66.055 310.558" stroke="black" stroke-width="4" stroke-linecap="round" stroke-linejoin="round"/>
<path d="M174.313 267.805L167.311 282.627" stroke="black" stroke-width="4" stroke-linecap="round" stroke-linejoin="round"/>
<path d="M49.3741 292.51L63.3105 289.767" stroke="black" stroke-width="4" stroke-linecap="round" stroke-linejoin="round"/>
<path d="M260.535 248.178L253.734 254.97C253.46 255.244 253.051 255.519 252.636 255.592C250.782 256.001 245.293 257.172 240.213 256.824C238.359 256.69 237.402 254.562 238.499 253.116C241.652 248.867 246.532 241.386 243.647 238.984C241.103 236.856 215.158 248.385 195.733 257.513L221.129 299.784C231.906 292.651 240.695 286.126 244.33 283.59C249.618 279.749 253.734 274.396 255.863 268.146C255.937 267.872 256.07 267.671 256.211 267.463C257.65 265.677 264.993 256.067 264.444 249.55C264.31 247.629 261.907 246.806 260.535 248.178Z" fill="#EAA58B"/>
<path opacity="0.3" d="M137.036 310.698C125.576 292.577 118.159 258.195 118.159 258.195H117.403C112.737 259.366 110.542 262.384 109.236 270.689C107.791 281.944 104.223 301.845 95.4406 310.625L137.036 310.698Z" fill="black"/>
<path d="M256.004 267.805C251.197 271.237 237.95 270.548 237.95 270.548" stroke="black" stroke-width="4" stroke-linecap="round" stroke-linejoin="round"/>
<path d="M249.203 279.334C242.957 281.529 234.724 281.529 234.724 281.529" stroke="black" stroke-width="4" stroke-linecap="round" stroke-linejoin="round"/>
<path d="M238.499 253.116L230.601 262.317" stroke="black" stroke-width="4" stroke-linecap="round" stroke-linejoin="round"/>
<path d="M15.39 281.757H87.7762C97.4152 281.757 106.579 289.586 108.252 299.148L127.256 407.165H20.002L1.00509 299.148C-0.668344 289.586 5.81789 281.757 15.39 281.757Z" fill="#61CCFF"/>
<path d="M140.57 526.826H46.8305C41.6161 526.826 37.399 531.102 37.399 536.254C37.399 541.467 41.683 545.683 46.8305 545.683H140.57C145.784 545.683 150.001 541.4 150.001 536.254C150.001 531.035 145.717 526.826 140.57 526.826Z" fill="#61CCFF"/>
<path opacity="0.2" d="M122.503 379.877L127.323 407.165H20.0689L18.0675 395.528L122.503 379.877Z" fill="black"/>
<path d="M207.34 399.744H111.532C106.311 399.744 102.094 404.02 102.094 409.173C102.094 414.392 106.378 418.601 111.532 418.601H207.34C212.554 418.601 216.771 414.325 216.771 409.173C216.771 404.02 212.487 399.744 207.34 399.744Z" fill="#61CCFF"/>
<path d="M126.386 399.744H20.4706C15.2561 399.744 11.0391 404.02 11.0391 409.173C11.0391 414.392 15.3231 418.601 20.4706 418.601H126.386C131.6 418.601 135.817 414.325 135.817 409.173C135.817 404.02 131.6 399.744 126.386 399.744Z" fill="#61CCFF"/>
<path d="M125.716 398.406H19.1317" stroke="black" stroke-width="4" stroke-linecap="round" stroke-linejoin="round"/>
</svg>
