<svg width="54" height="53" viewBox="0 0 54 53" fill="none" xmlns="http://www.w3.org/2000/svg">
<path d="M26.5085 53C41.1471 53 53.0148 41.1356 53.0148 26.5011C53.0148 11.8644 41.1471 0 26.5085 0C11.8677 0 0 11.8644 0 26.5011C0 41.1356 11.8677 53 26.5085 53Z" fill="white"/>
<path d="M29.3098 16.2021L26.5088 26.5011L35.6356 38.4857" stroke="#9C27B0" stroke-width="4" stroke-linecap="round" stroke-linejoin="round"/>
<path d="M26.5084 7.43866C27.2581 7.43866 27.8638 6.83094 27.8638 6.08365C27.8638 5.3342 27.2581 4.72864 26.5084 4.72864C25.7609 4.72864 25.1509 5.3342 25.1509 6.08365C25.1509 6.83094 25.7609 7.43866 26.5084 7.43866Z" fill="#9C27B0"/>
<path d="M26.5084 48.2414C27.2581 48.2414 27.8638 47.6337 27.8638 46.8864C27.8638 46.1369 27.2581 45.5314 26.5084 45.5314C25.7609 45.5314 25.1509 46.1369 25.1509 46.8864C25.1509 47.6337 25.7609 48.2414 26.5084 48.2414Z" fill="#9C27B0"/>
<path d="M46.8993 27.8561C47.649 27.8561 48.2547 27.2463 48.2547 26.5011C48.2547 25.7495 47.649 25.1461 46.8993 25.1461C46.1497 25.1461 45.5439 25.7495 45.5439 26.5011C45.5439 27.2463 46.1497 27.8561 46.8993 27.8561Z" fill="#9C27B0"/>
<path d="M6.08537 27.8561C6.83502 27.8561 7.44076 27.2463 7.44076 26.5011C7.44076 25.7495 6.83502 25.1461 6.08537 25.1461C5.33572 25.1461 4.72998 25.7495 4.72998 26.5011C4.72998 27.2463 5.33572 27.8561 6.08537 27.8561Z" fill="#9C27B0"/>
<path d="M26.446 28.4874C27.4942 28.4874 28.3448 27.6392 28.3448 26.5913C28.3448 25.5434 27.4942 24.693 26.446 24.693C25.3978 24.693 24.5493 25.5434 24.5493 26.5913C24.5493 27.6392 25.3978 28.4874 26.446 28.4874Z" fill="#6C6C6C"/>
</svg>
